<?xml version="1.0" encoding="utf-8"?>
<!-- Generator: Adobe Illustrator 16.0.0, SVG Export Plug-In . SVG Version: 6.00 Build 0)  -->
<!DOCTYPE svg PUBLIC "-//W3C//DTD SVG 1.1//EN" "http://www.w3.org/Graphics/SVG/1.1/DTD/svg11.dtd">
<svg version="1.1" xmlns="http://www.w3.org/2000/svg" xmlns:xlink="http://www.w3.org/1999/xlink" x="0px" y="0px" width="40px"
	 height="39.16px" viewBox="0 0 40 39.16" enable-background="new 0 0 40 39.16" xml:space="preserve">
<g id="Calque_1">
</g>
<g id="Calque_2">
	<path fill="#DBD9D9" d="M40,19.548c0-1.476-0.611-2.893-1.658-3.915c0.063-0.46,0.107-0.922,0.107-1.384
		C38.449,8.708,33.94,4.2,28.4,4.2c-0.274,0-0.545,0.012-0.814,0.034C26.745,1.757,24.377,0,21.681,0
		c-1.582,0-3.06,0.591-4.199,1.636c-0.936-0.56-2.007-0.86-3.104-0.86c-2.332,0-4.398,1.302-5.402,3.322
		c-0.16-0.012-0.319-0.027-0.477-0.027c-3.582,0-6.497,2.914-6.497,6.494c0,0.501,0.043,0.917,0.128,1.321
		C0.772,13.388,0,15.341,0,17.351c0,4.472,3.638,8.111,8.11,8.111c0.66,0,1.378-0.11,2.082-0.296
		c1.009,2.805,3.688,4.819,6.836,4.819c0.649,0,1.282-0.091,1.894-0.255l6.224,8.944c0.216,0.31,0.565,0.485,0.929,0.485
		c0.112,0,0.228-0.017,0.339-0.052c0.472-0.148,0.793-0.585,0.793-1.08v-4.449c4.89-0.242,8.845-4.077,9.262-8.921
		C38.559,23.878,40,21.857,40,19.548z M35.88,22.446c-0.515-0.791-1.05-1.437-1.608-1.965c-0.286-0.593-0.441-1.23-0.441-1.901
		c0-0.841,0.235-1.66,0.684-2.368c0.333-0.529,0.176-1.227-0.354-1.561c-0.528-0.334-1.227-0.176-1.562,0.352
		c-0.676,1.07-1.032,2.307-1.032,3.577c0,0.053,0.008,0.106,0.009,0.159c-0.925-0.393-1.906-0.664-2.953-0.916
		c-0.607-0.147-1.219,0.227-1.365,0.835s0.228,1.219,0.835,1.366c2.615,0.63,4.474,1.281,6.141,4.074
		c-0.152,4.019-3.457,7.242-7.512,7.242c-0.19,0-0.379-0.007-0.565-0.021c-0.512-0.033-0.939,0.265-1.117,0.702
		c-0.01,0.02-0.011,0.043-0.018,0.065c-0.031,0.09-0.069,0.178-0.077,0.277c-0.002,0.022,0.009,0.041,0.009,0.063
		c-0.001,0.016-0.01,0.028-0.01,0.044v1.949l-4.174-6c1.659-1.931,4.413-2.725,6.835-1.935c0.599,0.194,1.232-0.132,1.426-0.726
		c0.194-0.595-0.131-1.233-0.725-1.427c-0.869-0.283-1.771-0.427-2.684-0.427c-2.73,0-5.283,1.313-6.929,3.514
		c-0.529,0.188-1.084,0.3-1.664,0.3c-2.762,0-5.008-2.245-5.008-5.007c0-1.908,1.061-3.625,2.768-4.479
		c0.559-0.28,0.785-0.959,0.506-1.519c-0.28-0.559-0.96-0.787-1.52-0.505c-0.618,0.31-1.178,0.697-1.671,1.148
		c-0.903-1.271-2.046-2.366-3.368-3.213c-0.525-0.337-1.227-0.184-1.562,0.342c-0.338,0.526-0.184,1.227,0.342,1.563
		c1.278,0.819,2.336,1.932,3.119,3.222c-0.557,1.037-0.877,2.207-0.877,3.44c0,0.076,0.01,0.15,0.012,0.226
		c-0.563,0.162-1.147,0.259-1.658,0.259c-3.224,0-5.847-2.623-5.847-5.847c0-1.616,0.692-3.188,1.898-4.314
		c0.035-0.033,0.05-0.076,0.08-0.112c0.063-0.077,0.13-0.15,0.171-0.24c0.032-0.069,0.039-0.143,0.057-0.216
		c0.016-0.068,0.043-0.133,0.047-0.205c0.004-0.101-0.02-0.2-0.042-0.299c-0.01-0.043-0.003-0.087-0.018-0.13
		c-0.141-0.402-0.19-0.734-0.19-1.27c-0.001-2.64,2.492-4.734,5.177-4.123C9.47,6.448,9.494,6.44,9.521,6.444
		C9.578,6.453,9.636,6.47,9.694,6.47c0.041,0,0.078-0.015,0.119-0.019C9.864,6.446,9.911,6.44,9.96,6.428
		c0.087-0.021,0.167-0.055,0.246-0.095c0.04-0.021,0.081-0.036,0.118-0.061C10.433,6.198,10.532,6.11,10.611,6
		c0.006-0.008,0.008-0.019,0.014-0.028c0.062-0.091,0.115-0.189,0.149-0.299c0.487-1.575,1.936-2.633,3.604-2.633
		c0.916,0,1.807,0.336,2.507,0.948c0.011,0.009,0.024,0.011,0.034,0.02c0.008,0.006,0.012,0.017,0.02,0.023
		c0.045,0.034,0.098,0.044,0.146,0.07c0.077,0.044,0.151,0.091,0.235,0.115c0.055,0.016,0.109,0.013,0.165,0.021
		c0.089,0.012,0.177,0.026,0.265,0.017c0.055-0.006,0.104-0.028,0.155-0.041c0.089-0.023,0.175-0.043,0.257-0.086
		c0.049-0.026,0.088-0.068,0.134-0.103c0.063-0.047,0.134-0.081,0.187-0.143c0.011-0.012,0.014-0.028,0.023-0.041
		c0.006-0.008,0.016-0.011,0.021-0.019c0.758-0.99,1.908-1.557,3.154-1.557c1.617,0,3.036,0.998,3.644,2.428
		c-1.409,0.457-2.695,1.22-3.771,2.221c-0.377-0.176-0.697-0.46-0.909-0.831c-0.31-0.544-1.003-0.732-1.544-0.421
		c-0.543,0.31-0.731,1.001-0.422,1.543c0.342,0.598,0.821,1.084,1.381,1.452c-0.58,0.858-1.035,1.813-1.327,2.844
		c-0.171,0.601,0.179,1.227,0.78,1.398c0.602,0.172,1.228-0.179,1.397-0.78c0.944-3.329,4.024-5.655,7.49-5.655
		c4.292,0,7.785,3.493,7.785,7.785c0,0.534-0.055,1.07-0.163,1.597c-0.01,0.048,0.003,0.093-0.001,0.14
		c-0.008,0.096-0.019,0.19-0.002,0.284c0.011,0.062,0.04,0.116,0.061,0.175c0.028,0.079,0.05,0.158,0.095,0.23
		c0.037,0.059,0.09,0.103,0.137,0.153c0.048,0.052,0.081,0.112,0.139,0.156c0.817,0.612,1.286,1.547,1.286,2.565
		C37.736,20.822,36.985,21.939,35.88,22.446z"/>
</g>
</svg>
