<?xml version="1.0" encoding="utf-8"?>
<!-- Generator: Adobe Illustrator 16.0.0, SVG Export Plug-In . SVG Version: 6.00 Build 0)  -->
<!DOCTYPE svg PUBLIC "-//W3C//DTD SVG 1.1//EN" "http://www.w3.org/Graphics/SVG/1.1/DTD/svg11.dtd">
<svg version="1.1" id="Calque_1" xmlns="http://www.w3.org/2000/svg" xmlns:xlink="http://www.w3.org/1999/xlink" x="0px" y="0px"
	 width="160px" height="156.639px" viewBox="7.5 7.343 160 156.639" enable-background="new 7.5 7.343 160 156.639"
	 xml:space="preserve">
<path fill="#FFFFFF" d="M167.5,85.533c0-5.893-2.431-11.553-6.604-15.635c0.259-1.854,0.401-3.715,0.401-5.561
	c0-22.163-18.033-40.194-40.197-40.194c-1.092,0-2.178,0.046-3.254,0.134c-3.36-9.908-12.838-16.935-23.627-16.935
	c-6.331,0-12.266,2.337-16.826,6.521c-3.739-2.224-8.012-3.42-12.381-3.42c-9.325,0-17.582,5.196-21.602,13.263
	c-0.641-0.048-1.282-0.081-1.918-0.081c-14.326,0-25.979,11.655-25.979,25.979c0,1.999,0.149,3.668,0.487,5.28
	c-5.426,6.009-8.5,13.827-8.5,21.86c0,17.889,14.553,32.442,32.441,32.442c2.631,0,5.502-0.401,8.309-1.137
	c4.046,11.201,14.781,19.229,27.359,19.229c2.608,0,5.147-0.341,7.592-0.998l24.878,35.758c0.861,1.238,2.263,1.941,3.715,1.941
	c0.451,0,0.909-0.067,1.355-0.208c1.886-0.591,3.171-2.341,3.171-4.319v-17.752c19.564-0.959,35.394-16.347,37.064-35.719
	C161.743,102.857,167.5,94.764,167.5,85.533z M151.048,97.151c-2.096-3.223-4.275-5.837-6.554-7.979
	c-1.109-2.354-1.678-4.879-1.678-7.516c0-3.365,0.945-6.637,2.736-9.461c1.339-2.111,0.711-4.908-1.399-6.247
	c-2.112-1.339-4.907-0.712-6.247,1.399c-2.711,4.277-4.145,9.223-4.145,14.309c0,0.206,0.016,0.412,0.021,0.618
	c-3.694-1.565-7.615-2.633-11.791-3.64c-2.434-0.586-4.875,0.908-5.463,3.339c-0.586,2.43,0.91,4.876,3.34,5.462
	c10.473,2.525,17.925,5.059,24.594,16.261c-0.583,16.091-13.849,29.003-30.082,29.003c-0.755,0-1.515-0.026-2.255-0.081
	c-2.489-0.188-4.665,1.686-4.851,4.177c-0.014,0.184-0.014,0.363-0.005,0.544v7.685l-16.695-23.996
	c4.877-5.682,11.938-8.997,19.412-8.997c2.708,0,5.375,0.421,7.92,1.254c2.378,0.776,4.934-0.521,5.71-2.896
	c0.777-2.378-0.52-4.933-2.896-5.708c-3.456-1.131-7.067-1.703-10.733-1.703c-10.995,0-21.301,5.279-27.878,14.181
	c-2.056,0.706-4.234,1.069-6.499,1.069c-11.044,0-20.029-8.984-20.029-20.028c0-7.633,4.243-14.499,11.072-17.921
	c2.235-1.12,3.139-3.838,2.02-6.074c-1.12-2.234-3.839-3.14-6.076-2.019c-2.473,1.239-4.711,2.79-6.68,4.591
	c-3.616-5.087-8.195-9.465-13.478-12.846c-2.106-1.349-4.905-0.734-6.253,1.372c-1.348,2.105-0.734,4.905,1.372,6.252
	c5.073,3.249,9.35,7.621,12.483,12.741c-2.268,4.177-3.514,8.927-3.514,13.905c0,0.311,0.014,0.617,0.023,0.926
	c-2.247,0.642-4.573,1.01-6.61,1.01c-12.896,0-23.389-10.492-23.389-23.389c0-6.461,2.767-12.751,7.593-17.256
	c0.022-0.021,0.041-0.044,0.063-0.065c0.08-0.079,0.161-0.158,0.234-0.242c0.042-0.046,0.078-0.096,0.117-0.142
	c0.053-0.064,0.105-0.129,0.155-0.196c0.047-0.065,0.09-0.132,0.133-0.198c0.035-0.055,0.071-0.107,0.104-0.162
	c0.045-0.076,0.086-0.155,0.126-0.233c0.025-0.051,0.053-0.101,0.077-0.153c0.037-0.08,0.069-0.16,0.101-0.242
	c0.022-0.056,0.045-0.111,0.066-0.168c0.026-0.075,0.05-0.151,0.071-0.228c0.019-0.066,0.04-0.133,0.057-0.199
	c0.017-0.067,0.03-0.134,0.043-0.203c0.016-0.079,0.031-0.157,0.042-0.236c0.008-0.059,0.013-0.117,0.019-0.176
	c0.009-0.088,0.018-0.175,0.022-0.264c0.002-0.055,0.002-0.11,0.002-0.167c0-0.089,0-0.179-0.003-0.269
	c-0.003-0.062-0.011-0.124-0.017-0.186c-0.007-0.081-0.015-0.163-0.027-0.245c-0.012-0.079-0.028-0.156-0.045-0.235
	c-0.013-0.063-0.024-0.128-0.04-0.191c-0.025-0.102-0.056-0.204-0.089-0.304c-0.011-0.035-0.02-0.069-0.031-0.104
	c-0.563-1.608-0.763-2.937-0.763-5.078c0-9.333,7.593-16.927,16.926-16.927c1.229,0,2.538,0.149,3.787,0.431
	c0.077,0.018,0.155,0.027,0.232,0.04c0.05,0.008,0.1,0.019,0.148,0.026c0.194,0.027,0.388,0.041,0.579,0.043
	c0.012,0,0.025,0.002,0.036,0.002c0.025,0,0.051-0.005,0.076-0.005c0.194-0.003,0.385-0.019,0.573-0.046
	c0.032-0.004,0.064-0.007,0.097-0.013c0.205-0.035,0.406-0.085,0.604-0.147c0.041-0.013,0.082-0.028,0.124-0.041
	c0.197-0.069,0.392-0.146,0.576-0.241c0.013-0.006,0.025-0.015,0.038-0.021c0.175-0.092,0.343-0.196,0.504-0.31
	c0.036-0.026,0.073-0.049,0.109-0.076c0.162-0.121,0.316-0.251,0.461-0.393c0.032-0.031,0.062-0.063,0.091-0.094
	c0.14-0.144,0.271-0.295,0.391-0.457c0.009-0.012,0.019-0.022,0.027-0.035c0.126-0.174,0.236-0.362,0.338-0.555
	c0.019-0.037,0.038-0.073,0.056-0.111c0.095-0.195,0.178-0.398,0.246-0.61c0.003-0.012,0.01-0.021,0.013-0.034
	c1.951-6.303,7.744-10.536,14.416-10.536c3.66,0,7.222,1.349,10.028,3.796c0.041,0.036,0.084,0.065,0.126,0.1
	c0.03,0.022,0.055,0.048,0.085,0.071c0.019,0.014,0.038,0.025,0.056,0.039c0.088,0.067,0.179,0.128,0.272,0.188
	c0.03,0.02,0.059,0.039,0.09,0.058c0.11,0.067,0.222,0.128,0.335,0.184c0.016,0.008,0.03,0.016,0.046,0.022
	c0.128,0.062,0.26,0.118,0.393,0.167c0.001,0,0.002,0.001,0.003,0.001c1.712,0.634,3.711,0.192,4.982-1.266
	c0.111-0.127,0.212-0.26,0.307-0.396c3.038-3.855,7.576-6.065,12.484-6.065c6.473,0,12.193,3.966,14.625,9.686
	c-5.667,1.83-10.843,4.893-15.158,8.912c-1.499-0.705-2.765-1.852-3.609-3.329c-1.241-2.171-4.007-2.926-6.177-1.683
	c-2.17,1.24-2.924,4.005-1.683,6.176c1.365,2.388,3.254,4.373,5.486,5.842c-2.303,3.424-4.105,7.233-5.272,11.343
	c-0.683,2.405,0.713,4.908,3.118,5.59c2.407,0.682,4.909-0.712,5.591-3.118c3.782-13.317,16.103-22.618,29.962-22.618
	c17.172,0,31.144,13.97,31.144,31.141c0,2.116-0.223,4.264-0.661,6.387c-0.001,0-0.001,0.002-0.001,0.003
	c-0.347,1.668,0.264,3.461,1.719,4.548c3.27,2.443,5.145,6.181,5.145,10.256C158.446,90.627,155.465,95.119,151.048,97.151z"/>
</svg>
