<?xml version="1.0" encoding="utf-8"?>
<!-- Generator: Adobe Illustrator 16.0.0, SVG Export Plug-In . SVG Version: 6.00 Build 0)  -->
<!DOCTYPE svg PUBLIC "-//W3C//DTD SVG 1.1//EN" "http://www.w3.org/Graphics/SVG/1.1/DTD/svg11.dtd">
<svg version="1.1" id="Calque_1" xmlns="http://www.w3.org/2000/svg" xmlns:xlink="http://www.w3.org/1999/xlink" x="0px" y="0px"
	 width="255.185px" height="249.825px" viewBox="0 0 255.185 249.825" enable-background="new 0 0 255.185 249.825"
	 xml:space="preserve">
<path fill="#FFFFFF" d="M255.185,124.706c0-9.399-3.876-18.424-10.531-24.936c0.412-2.957,0.638-5.925,0.638-8.868
	c0-35.349-28.759-64.107-64.108-64.107c-1.743,0-3.475,0.074-5.191,0.214C170.631,11.208,155.519,0,138.31,0
	c-10.097,0-19.563,3.727-26.835,10.401c-5.964-3.548-12.778-5.455-19.747-5.455c-14.872,0-28.041,8.287-34.453,21.154
	c-1.023-0.077-2.045-0.13-3.061-0.13c-22.847,0-41.435,18.587-41.435,41.435c0,3.187,0.238,5.851,0.777,8.422
	C4.902,85.411,0,97.879,0,110.69c0,28.53,23.211,51.741,51.741,51.741c4.197,0,8.776-0.639,13.252-1.811
	c6.453,17.863,23.575,30.667,43.636,30.667c4.16,0,8.21-0.542,12.108-1.591l39.679,57.031c1.375,1.977,3.607,3.097,5.927,3.097
	c0.719,0,1.447-0.107,2.159-0.331c3.011-0.944,5.06-3.733,5.06-6.889v-28.312c31.204-1.531,56.448-26.071,59.114-56.969
	C246.002,152.337,255.185,139.429,255.185,124.706z M228.945,143.237c-3.341-5.143-6.819-9.311-10.453-12.726
	c-1.769-3.756-2.676-7.782-2.676-11.989c0-5.366,1.509-10.584,4.365-15.089c2.135-3.367,1.136-7.828-2.232-9.962
	s-7.827-1.136-9.963,2.232c-4.323,6.82-6.609,14.711-6.609,22.819c0,0.329,0.021,0.658,0.029,0.987
	c-5.893-2.497-12.146-4.2-18.806-5.806c-3.882-0.934-7.775,1.45-8.711,5.326c-0.935,3.876,1.45,7.776,5.326,8.71
	c16.703,4.027,28.589,8.07,39.226,25.936c-0.931,25.664-22.088,46.258-47.977,46.258c-1.207,0-2.418-0.044-3.6-0.132
	c-3.968-0.298-7.438,2.688-7.734,6.664c-0.021,0.292-0.021,0.58-0.008,0.866v12.256l-26.626-38.271
	c7.777-9.062,19.038-14.351,30.96-14.351c4.32,0,8.57,0.673,12.633,2.001c3.791,1.237,7.866-0.829,9.105-4.619
	c1.238-3.79-0.829-7.866-4.619-9.105c-5.513-1.802-11.272-2.716-17.119-2.716c-17.535,0-33.972,8.421-44.463,22.617
	c-3.277,1.127-6.753,1.704-10.365,1.704c-17.613,0-31.943-14.329-31.943-31.942c0-12.173,6.766-23.124,17.658-28.581
	c3.565-1.786,5.007-6.124,3.221-9.688c-1.786-3.564-6.122-5.007-9.688-3.221c-3.944,1.976-7.515,4.449-10.653,7.321
	c-5.768-8.114-13.07-15.095-21.496-20.49c-3.359-2.151-7.823-1.17-9.973,2.188c-2.15,3.358-1.17,7.823,2.188,9.973
	c8.092,5.181,14.913,12.155,19.91,20.321c-3.617,6.661-5.604,14.238-5.604,22.178c0,0.495,0.022,0.984,0.038,1.476
	c-3.583,1.023-7.294,1.61-10.544,1.61c-20.569,0-37.303-16.733-37.303-37.302c0-10.304,4.414-20.335,12.11-27.521
	c0.036-0.033,0.066-0.07,0.101-0.104c0.129-0.125,0.255-0.252,0.374-0.386c0.065-0.073,0.124-0.15,0.186-0.226
	c0.084-0.103,0.169-0.206,0.247-0.313c0.076-0.104,0.144-0.21,0.213-0.317c0.056-0.085,0.113-0.17,0.165-0.257
	c0.072-0.122,0.137-0.247,0.201-0.372c0.042-0.081,0.084-0.16,0.123-0.243c0.059-0.126,0.111-0.255,0.163-0.384
	c0.036-0.089,0.072-0.177,0.104-0.268c0.042-0.12,0.078-0.241,0.114-0.363c0.031-0.105,0.063-0.211,0.089-0.318
	c0.026-0.107,0.047-0.214,0.068-0.322c0.025-0.125,0.049-0.25,0.067-0.377c0.014-0.093,0.022-0.187,0.032-0.281
	c0.015-0.14,0.028-0.28,0.035-0.421c0.004-0.088,0.003-0.177,0.003-0.265c0.001-0.143,0.002-0.286-0.005-0.429
	c-0.005-0.099-0.016-0.197-0.025-0.295c-0.012-0.13-0.023-0.26-0.042-0.391c-0.019-0.125-0.045-0.25-0.071-0.375
	c-0.021-0.102-0.038-0.203-0.063-0.304c-0.041-0.164-0.091-0.325-0.143-0.486c-0.018-0.055-0.03-0.11-0.049-0.165
	c-0.898-2.564-1.217-4.684-1.217-8.099c0-14.886,12.11-26.997,26.996-26.997c1.959,0,4.047,0.237,6.039,0.687
	c0.125,0.028,0.249,0.043,0.373,0.064c0.079,0.014,0.157,0.03,0.236,0.041c0.31,0.042,0.618,0.066,0.923,0.069
	c0.02,0,0.039,0.004,0.058,0.004c0.041,0,0.08-0.009,0.121-0.01c0.308-0.005,0.612-0.029,0.913-0.073
	c0.052-0.007,0.104-0.011,0.156-0.02c0.328-0.055,0.647-0.135,0.961-0.234c0.066-0.021,0.132-0.043,0.198-0.066
	c0.315-0.109,0.625-0.233,0.92-0.383c0.021-0.011,0.04-0.023,0.06-0.034c0.279-0.146,0.546-0.312,0.804-0.493
	c0.058-0.041,0.117-0.079,0.173-0.122c0.258-0.192,0.504-0.401,0.735-0.627c0.05-0.049,0.097-0.1,0.146-0.15
	c0.222-0.229,0.432-0.471,0.623-0.729c0.014-0.019,0.03-0.036,0.044-0.056c0.201-0.278,0.376-0.576,0.537-0.885
	c0.031-0.059,0.062-0.117,0.091-0.177c0.151-0.311,0.283-0.635,0.391-0.973c0.006-0.019,0.016-0.035,0.021-0.054
	c3.111-10.05,12.35-16.803,22.991-16.803c5.837,0,11.518,2.15,15.996,6.055c0.065,0.057,0.134,0.104,0.201,0.158
	c0.046,0.037,0.088,0.078,0.135,0.115c0.029,0.022,0.06,0.04,0.088,0.061c0.142,0.106,0.286,0.204,0.433,0.298
	c0.048,0.031,0.095,0.062,0.144,0.091c0.175,0.106,0.354,0.204,0.535,0.294c0.024,0.012,0.048,0.024,0.072,0.036
	c0.206,0.1,0.415,0.188,0.626,0.267c0.002,0,0.003,0.001,0.005,0.001c2.731,1.011,5.919,0.307,7.947-2.019
	c0.177-0.203,0.338-0.414,0.488-0.63c4.846-6.149,12.08-9.674,19.912-9.674c10.322,0,19.445,6.325,23.324,15.449
	c-9.04,2.918-17.293,7.802-24.177,14.213c-2.389-1.124-4.41-2.953-5.757-5.309c-1.979-3.462-6.39-4.666-9.851-2.685
	c-3.462,1.979-4.664,6.389-2.685,9.85c2.177,3.809,5.189,6.975,8.749,9.318c-3.673,5.461-6.548,11.536-8.409,18.091
	c-1.089,3.835,1.138,7.828,4.973,8.917c3.838,1.088,7.829-1.138,8.917-4.973c6.03-21.24,25.681-36.075,47.788-36.075
	c27.388,0,49.669,22.281,49.669,49.668c0,3.374-0.354,6.801-1.054,10.186c-0.001,0.002-0.001,0.004-0.001,0.007
	c-0.552,2.661,0.421,5.521,2.741,7.254c5.216,3.896,8.207,9.857,8.207,16.357C240.746,132.832,235.99,139.997,228.945,143.237z"/>
</svg>
